<mxfile host="app.diagrams.net" modified="2022-11-17T08:55:16.607Z" agent="5.0 (Windows NT 10.0; Win64; x64) AppleWebKit/537.36 (KHTML, like Gecko) Chrome/107.0.0.0 Safari/537.36 Edg/107.0.1418.42" etag="AT4COlhbRmy6Qbw-GAwq" version="20.5.3" type="github">
  <diagram id="PWvh9ggtJIIBJPLl8T4h" name="第 1 页">
    <mxGraphModel dx="1325" dy="597" grid="1" gridSize="10" guides="1" tooltips="1" connect="1" arrows="1" fold="1" page="1" pageScale="1" pageWidth="1200" pageHeight="1600" math="0" shadow="0">
      <root>
        <mxCell id="0" />
        <mxCell id="1" parent="0" />
        <mxCell id="liVXFNQ5sXX95Kjzr_Q1-18" value="" style="whiteSpace=wrap;html=1;aspect=fixed;fillColor=#fff2cc;strokeColor=#d6b656;" vertex="1" parent="1">
          <mxGeometry x="875" y="40" width="440" height="440" as="geometry" />
        </mxCell>
        <mxCell id="liVXFNQ5sXX95Kjzr_Q1-3" value="客服拉取工单" style="edgeStyle=orthogonalEdgeStyle;rounded=0;orthogonalLoop=1;jettySize=auto;html=1;" edge="1" parent="1" source="liVXFNQ5sXX95Kjzr_Q1-1" target="liVXFNQ5sXX95Kjzr_Q1-2">
          <mxGeometry relative="1" as="geometry" />
        </mxCell>
        <mxCell id="liVXFNQ5sXX95Kjzr_Q1-1" value="用户提交问题&lt;br&gt;stage:idle&lt;br&gt;未分配&lt;br&gt;lock_user :0" style="rounded=1;whiteSpace=wrap;html=1;" vertex="1" parent="1">
          <mxGeometry x="210" y="130" width="170" height="60" as="geometry" />
        </mxCell>
        <mxCell id="liVXFNQ5sXX95Kjzr_Q1-5" value="客服回复：处理需要补充资料" style="edgeStyle=orthogonalEdgeStyle;rounded=0;orthogonalLoop=1;jettySize=auto;html=1;" edge="1" parent="1" source="liVXFNQ5sXX95Kjzr_Q1-2" target="liVXFNQ5sXX95Kjzr_Q1-4">
          <mxGeometry relative="1" as="geometry" />
        </mxCell>
        <mxCell id="liVXFNQ5sXX95Kjzr_Q1-7" value="客服回复：处理结束" style="edgeStyle=orthogonalEdgeStyle;rounded=0;orthogonalLoop=1;jettySize=auto;html=1;" edge="1" parent="1" source="liVXFNQ5sXX95Kjzr_Q1-2" target="liVXFNQ5sXX95Kjzr_Q1-6">
          <mxGeometry relative="1" as="geometry" />
        </mxCell>
        <mxCell id="liVXFNQ5sXX95Kjzr_Q1-2" value="&lt;br&gt;stage:need_reply&lt;br&gt;待回复&lt;br&gt;lock_user :客服id" style="rounded=1;whiteSpace=wrap;html=1;" vertex="1" parent="1">
          <mxGeometry x="490" y="130" width="290" height="60" as="geometry" />
        </mxCell>
        <mxCell id="liVXFNQ5sXX95Kjzr_Q1-10" value="玩家回复" style="edgeStyle=orthogonalEdgeStyle;rounded=0;orthogonalLoop=1;jettySize=auto;html=1;" edge="1" parent="1" source="liVXFNQ5sXX95Kjzr_Q1-4" target="liVXFNQ5sXX95Kjzr_Q1-9">
          <mxGeometry relative="1" as="geometry" />
        </mxCell>
        <mxCell id="liVXFNQ5sXX95Kjzr_Q1-14" value="玩家不回复超时" style="edgeStyle=orthogonalEdgeStyle;rounded=0;orthogonalLoop=1;jettySize=auto;html=1;" edge="1" parent="1" source="liVXFNQ5sXX95Kjzr_Q1-4" target="liVXFNQ5sXX95Kjzr_Q1-13">
          <mxGeometry relative="1" as="geometry" />
        </mxCell>
        <mxCell id="liVXFNQ5sXX95Kjzr_Q1-4" value="&lt;br&gt;stage:need_info&lt;br&gt;待玩家补充资料&lt;br&gt;lock_user :客服id&lt;br&gt;注意：回复内容写入超时时间" style="rounded=1;whiteSpace=wrap;html=1;" vertex="1" parent="1">
          <mxGeometry x="490" y="270" width="290" height="80" as="geometry" />
        </mxCell>
        <mxCell id="liVXFNQ5sXX95Kjzr_Q1-6" value="&lt;br&gt;stage:finish&lt;br&gt;完成&lt;br&gt;lock_user :客服id&lt;br&gt;写入完成时间" style="rounded=1;whiteSpace=wrap;html=1;" vertex="1" parent="1">
          <mxGeometry x="950" y="125" width="290" height="70" as="geometry" />
        </mxCell>
        <mxCell id="liVXFNQ5sXX95Kjzr_Q1-15" style="edgeStyle=orthogonalEdgeStyle;rounded=0;orthogonalLoop=1;jettySize=auto;html=1;entryX=0;entryY=0.5;entryDx=0;entryDy=0;" edge="1" parent="1" source="liVXFNQ5sXX95Kjzr_Q1-9" target="liVXFNQ5sXX95Kjzr_Q1-2">
          <mxGeometry relative="1" as="geometry">
            <mxPoint x="410" y="180" as="targetPoint" />
            <Array as="points">
              <mxPoint x="390" y="475" />
              <mxPoint x="390" y="160" />
            </Array>
          </mxGeometry>
        </mxCell>
        <mxCell id="liVXFNQ5sXX95Kjzr_Q1-9" value="&lt;br&gt;stage:idle&lt;br&gt;待玩家补充资料&lt;br&gt;lock_user :0&lt;br&gt;last_lock_user：客服id&lt;br&gt;注意：该条回复结束" style="rounded=1;whiteSpace=wrap;html=1;" vertex="1" parent="1">
          <mxGeometry x="490" y="430" width="290" height="90" as="geometry" />
        </mxCell>
        <mxCell id="liVXFNQ5sXX95Kjzr_Q1-13" value="&lt;br&gt;stage:timeout&lt;br&gt;超时结单&lt;br&gt;lock_user :客服id&lt;br&gt;写入完成时间&lt;br&gt;注意：回复内容写入超时时间&lt;br&gt;该条回复结束" style="rounded=1;whiteSpace=wrap;html=1;" vertex="1" parent="1">
          <mxGeometry x="950" y="255" width="290" height="110" as="geometry" />
        </mxCell>
        <mxCell id="liVXFNQ5sXX95Kjzr_Q1-19" value="&lt;h1&gt;工单结束&lt;/h1&gt;" style="text;html=1;strokeColor=none;fillColor=none;spacing=5;spacingTop=-20;whiteSpace=wrap;overflow=hidden;rounded=0;" vertex="1" parent="1">
          <mxGeometry x="1020" y="60" width="190" height="50" as="geometry" />
        </mxCell>
      </root>
    </mxGraphModel>
  </diagram>
</mxfile>
